<svg xmlns="http://www.w3.org/2000/svg" viewBox="0 0 100 100">
  <rect width="100" height="100" rx="22" fill="#0a0f0a"/>
  <rect x="8" y="8" width="84" height="84" rx="16" fill="#0f1a0f"/>
  <path d="M30 35 Q30 25 40 25 L60 25 Q70 25 70 35 L70 55 Q70 65 60 65 L52 65 L42 75 L42 65 L40 65 Q30 65 30 55 Z" fill="#25D366" opacity="0.15"/>
  <path d="M32 36 Q32 27 41 27 L59 27 Q68 27 68 36 L68 54 Q68 63 59 63 L51 63 L41 73 L41 63 L41 63 Q32 63 32 54 Z" fill="none" stroke="#25D366" stroke-width="2.5"/>
  <circle cx="42" cy="45" r="3.5" fill="#25D366"/>
  <circle cx="50" cy="45" r="3.5" fill="#25D366"/>
  <circle cx="58" cy="45" r="3.5" fill="#25D366"/>
</svg>